<svg xmlns="http://www.w3.org/2000/svg" width="800" height="260" viewBox="0 0 800 260"><defs><linearGradient id="sky" x2="0" y2="1"><stop stop-color="#e8f4ef"/><stop offset="1" stop-color="#fff8e7"/></linearGradient></defs><rect width="800" height="260" fill="url(#sky)"/><g fill="#fffdf8" opacity=".8"><ellipse cx="130" cy="66" rx="86" ry="21"/><ellipse cx="640" cy="52" rx="72" ry="18"/></g><path d="M0 180Q120 112 245 174T480 169T800 144V260H0" fill="#d5e8bb"/><path d="M0 214Q170 169 330 221T640 210T800 208V260H0" fill="#bed59b"/><g fill="#88af7c"><circle cx="30" cy="143" r="43"/><circle cx="80" cy="158" r="33"/><circle cx="759" cy="143" r="51"/><circle cx="717" cy="169" r="28"/></g><g stroke="#8fae6f" stroke-width="4"><path d="M80 240V202M707 240V207M164 242V225M628 242V221"/></g><g fill="#fff3c0"><circle cx="80" cy="194" r="11"/><circle cx="707" cy="200" r="10"/></g><g fill="#efb7a0"><circle cx="164" cy="220" r="9"/><circle cx="628" cy="216" r="9"/></g><g fill="#fffdf3"><circle cx="80" cy="194" r="4"/><circle cx="707" cy="200" r="4"/><circle cx="164" cy="220" r="3"/><circle cx="628" cy="216" r="3"/></g></svg>